<svg viewBox="0 0 121 120" fill="none" xmlns="http://www.w3.org/2000/svg">
    <g clip-path="url(#clip0_138_322)">
        <path
            d="M59.9862 0.0337524C29.599 0.0337524 31.4964 13.2114 31.4964 13.2114L31.5301 26.8639H60.528V30.9627H20.0126C20.0126 30.9627 0.567871 28.7575 0.567871 59.4178C0.567871 90.0792 17.5397 88.9918 17.5397 88.9918H27.6684V74.7637C27.6684 74.7637 27.1224 57.7919 44.3694 57.7919H73.1301C73.1301 57.7919 89.2887 58.053 89.2887 42.1751V15.9219C89.2887 15.9219 91.7429 0.0337524 59.9862 0.0337524ZM43.9968 9.21476C44.682 9.21415 45.3606 9.34866 45.9938 9.6106C46.627 9.87255 47.2024 10.2568 47.6869 10.7413C48.1714 11.2259 48.5557 11.8012 48.8176 12.4344C49.0796 13.0676 49.2141 13.7462 49.2134 14.4315C49.2141 15.1167 49.0796 15.7953 48.8176 16.4285C48.5557 17.0617 48.1714 17.6371 47.6869 18.1216C47.2024 18.6061 46.627 18.9904 45.9938 19.2523C45.3606 19.5143 44.682 19.6488 43.9968 19.6482C43.3115 19.6488 42.6329 19.5143 41.9997 19.2523C41.3665 18.9904 40.7912 18.6061 40.3066 18.1216C39.8221 17.6371 39.4378 17.0617 39.1759 16.4285C38.914 15.7953 38.7794 15.1167 38.7801 14.4315C38.7794 13.7462 38.914 13.0676 39.1759 12.4344C39.4378 11.8012 39.8221 11.2259 40.3066 10.7413C40.7912 10.2568 41.3665 9.87255 41.9997 9.6106C42.6329 9.34866 43.3115 9.21415 43.9968 9.21476V9.21476Z"
            fill="#B60045" />
        <path
            d="M60.8492 119.11C91.2363 119.11 89.339 105.933 89.339 105.933L89.3052 92.2807H60.3069V88.1818H100.822C100.822 88.1818 120.267 90.3871 120.267 59.7258C120.267 29.0649 103.295 30.1523 103.295 30.1523H93.1665V44.3799C93.1665 44.3799 93.7125 61.3517 76.4655 61.3517H47.7048C47.7048 61.3517 31.5462 61.0906 31.5462 76.969V103.223C31.5462 103.223 29.0925 119.11 60.8487 119.11H60.8492ZM76.8386 109.93C76.1534 109.931 75.4747 109.796 74.8415 109.534C74.2083 109.272 73.633 108.888 73.1485 108.404C72.6639 107.919 72.2797 107.344 72.0178 106.711C71.7558 106.077 71.6213 105.399 71.6219 104.714C71.6212 104.028 71.7557 103.35 72.0176 102.716C72.2795 102.083 72.6638 101.508 73.1483 101.023C73.6329 100.539 74.2082 100.154 74.8414 99.8923C75.4747 99.6303 76.1533 99.4958 76.8386 99.4964C77.5239 99.4958 78.2025 99.6303 78.8357 99.8922C79.4689 100.154 80.0442 100.538 80.5288 101.023C81.0133 101.507 81.3975 102.083 81.6595 102.716C81.9214 103.349 82.0559 104.028 82.0553 104.713C82.0559 105.398 81.9214 106.077 81.6595 106.71C81.3975 107.343 81.0133 107.919 80.5288 108.403C80.0442 108.888 79.4689 109.272 78.8357 109.534C78.2025 109.796 77.5239 109.93 76.8386 109.93V109.93Z"
            fill="#FF0060" />
    </g>
    <defs>
        <clipPath id="clip0_138_322">
            <rect width="120" height="120" fill="white" transform="translate(0.5)" />
        </clipPath>
    </defs>
</svg>