<svg viewBox="0 0 121 120" fill="none" xmlns="http://www.w3.org/2000/svg">
<path d="M118.779 18.3166L63.4387 117.274C62.296 119.317 59.3605 119.329 58.2008 117.296L1.7636 18.3258C0.499927 16.1104 2.39451 13.4266 4.90529 13.8758L60.3048 23.7776C60.6582 23.8408 61.0201 23.8401 61.3733 23.7758L115.614 13.8896C118.117 13.4335 120.02 16.0966 118.779 18.3166V18.3166Z" fill="#B60045"/>
<path d="M86.6943 0.887028L45.7414 8.91175C45.4142 8.97586 45.1176 9.14689 44.8981 9.39796C44.6787 9.64903 44.549 9.9659 44.5293 10.2988L42.0102 52.8457C41.9964 53.0791 42.0371 53.3124 42.1292 53.5273C42.2213 53.7421 42.3622 53.9326 42.5407 54.0835C42.7193 54.2344 42.9305 54.3415 43.1577 54.3965C43.3849 54.4515 43.6218 54.4528 43.8496 54.4002L55.2516 51.7689C56.3183 51.5227 57.2824 52.4624 57.0629 53.5351L53.6755 70.1234C53.4477 71.2398 54.4955 72.1942 55.5857 71.8629L62.6284 69.7235C63.72 69.3922 64.7692 70.3494 64.5382 71.4667L59.1549 97.5229C58.818 99.1529 60.986 100.041 61.8898 98.6444L62.494 97.7111L95.8649 31.113C96.424 29.9979 95.4599 28.7264 94.2358 28.963L82.4988 31.228C81.3962 31.4406 80.4578 30.4135 80.7689 29.3348L88.4292 2.77977C88.7407 1.69834 87.7987 0.670741 86.6947 0.887028H86.6943Z" fill="#FF0060"/>
</svg>
