<svg viewBox="0 0 121 120" fill="none" xmlns="http://www.w3.org/2000/svg">
    <path
        d="M56.0761 1.52346C59.0387 -0.172283 62.8974 -0.179942 65.8574 1.52346C80.7489 9.93793 95.6451 18.3392 110.534 26.7588C113.334 28.3362 115.208 31.4528 115.179 34.6796V85.3043C115.2 88.6647 113.142 91.8558 110.187 93.3975C95.3446 101.766 80.5097 110.144 65.6697 118.512C62.6459 120.241 58.7097 120.108 55.7804 118.237C51.3306 115.658 46.8731 113.091 42.4229 110.514C41.5136 109.972 40.4884 109.54 39.8463 108.658C40.414 107.893 41.4289 107.798 42.2536 107.464C44.111 106.873 45.817 105.925 47.5233 105.005C47.9548 104.71 48.4816 104.823 48.8953 105.087C52.7004 107.269 56.4719 109.514 60.2897 111.675C61.1042 112.145 61.9289 111.521 62.625 111.133C77.1902 102.901 91.7731 94.7001 106.336 86.4656C106.875 86.206 107.174 85.6333 107.13 85.0422C107.14 68.3422 107.132 51.6392 107.135 34.9392C107.197 34.2686 106.808 33.652 106.202 33.3775C91.411 25.0477 76.6276 16.7052 61.8391 8.37325C61.5829 8.1971 61.2794 8.10259 60.9684 8.10213C60.6575 8.10168 60.3537 8.1953 60.097 8.3707C45.3085 16.7052 30.5276 25.0554 15.7391 33.3847C15.1348 33.6596 14.7293 34.266 14.8012 34.9392C14.8038 51.6392 14.8012 68.3422 14.8012 85.0447C14.7756 85.3331 14.8389 85.6225 14.9827 85.8738C15.1265 86.1251 15.3438 86.3263 15.6055 86.4503C19.5519 88.6881 23.5033 90.9103 27.4523 93.1405C29.677 94.3379 32.4084 95.0494 34.8595 94.132C37.0225 93.3562 38.5387 91.149 38.4974 88.8524C38.5178 72.2498 38.4872 55.6447 38.5127 39.0447C38.4587 38.3077 39.1578 37.6988 39.8744 37.7681C41.7706 37.7554 43.6693 37.7426 45.5655 37.7733C46.357 37.7554 46.9016 38.549 46.8038 39.2916C46.7961 55.9992 46.8242 72.7073 46.791 89.415C46.7961 93.8677 44.9667 98.7128 40.848 100.892C35.774 103.52 29.5025 102.963 24.4897 100.442C20.1502 98.2762 16.0089 95.7201 11.7463 93.3996C8.78419 91.8664 6.73611 88.6626 6.75696 85.3047V34.6796C6.72589 31.386 8.67355 28.2128 11.5612 26.6584C26.4012 18.2835 41.2387 9.90219 56.0761 1.52346Z"
        fill="#B60045" />
    <path
        d="M69.0225 36.5915C75.4948 36.1749 82.4238 36.3447 88.248 39.5332C92.7574 41.9766 95.2574 47.1047 95.3369 52.1145C95.211 52.7903 94.5046 53.163 93.8595 53.1166C91.9816 53.1141 90.1033 53.1422 88.2255 53.1039C87.4289 53.1345 86.9659 52.4 86.8659 51.6958C86.3263 49.2988 85.0191 46.9247 82.7629 45.7685C79.2995 44.0345 75.2837 44.1217 71.5072 44.1579C68.7501 44.3043 65.7855 44.543 63.4497 46.1643C61.6565 47.3924 61.1118 49.8715 61.7518 51.8681C62.3552 53.3017 64.0101 53.7643 65.3642 54.1907C73.1642 56.2307 81.4297 56.0277 89.0808 58.7124C92.2484 59.8068 95.3472 61.9345 96.4314 65.2511C97.8497 69.6962 97.228 75.0094 94.0655 78.5779C91.5008 81.5145 87.7655 83.1128 84.0399 83.9809C79.0837 85.086 73.9403 85.1141 68.9072 84.6234C64.1744 84.0839 59.2493 82.8405 55.5957 79.6158C52.4714 76.903 50.9454 72.6762 51.0969 68.5966C51.1331 67.9077 51.8191 67.4273 52.4791 67.4839C54.3701 67.4686 56.2612 67.4634 58.1523 67.4864C58.9076 67.4324 59.4676 68.0851 59.5063 68.7971C59.8552 71.0809 60.7135 73.4779 62.705 74.832C66.5484 77.3115 71.371 77.1417 75.7718 77.2111C79.4178 77.0494 83.5106 77.0005 86.4859 74.5907C88.0557 73.2162 88.5208 70.9166 88.0965 68.9383C87.6369 67.2681 85.8897 66.4898 84.3893 65.9809C76.6893 63.5451 68.3314 64.429 60.7059 61.6745C57.6101 60.5805 54.6165 58.512 53.4272 55.3315C51.7676 50.8303 52.528 45.2626 56.022 41.8145C59.4289 38.3847 64.3467 37.0639 69.0225 36.5911V36.5915Z"
        fill="#B60045" />
</svg>