<svg viewBox="0 0 121 120" fill="none" xmlns="http://www.w3.org/2000/svg">
    <path
        d="M103.766 66.7031C99.5703 66.7268 95.9375 67.7344 92.8906 69.2346C91.7656 67.008 90.6406 65.0625 90.4534 63.6096C90.2424 61.9221 89.9846 60.8906 90.2424 58.8752C90.5 56.8594 91.6719 54 91.6719 53.7656C91.6482 53.5547 91.4138 52.5234 89 52.5C86.5862 52.4766 84.5 52.9688 84.2656 53.6016C84.0313 54.2344 83.5625 55.6875 83.2578 57.1875C82.8359 59.3906 78.4297 67.1953 75.9219 71.2969C75.1016 69.7031 74.3984 68.2969 74.2576 67.1716C74.0469 65.4844 73.7888 64.4529 74.0469 62.4375C74.3047 60.4216 75.4766 57.5625 75.4766 57.3281C75.4531 57.1172 75.2188 56.0859 72.8049 56.0625C70.3906 56.0391 68.3049 56.5313 68.0705 57.1641C67.8362 57.7969 67.5784 59.2969 67.0627 60.75C66.5703 62.2031 60.7109 75.2344 59.1875 78.6328C58.4141 80.3672 57.7346 81.75 57.2422 82.6875C56.75 83.625 57.2188 82.7578 57.1719 82.8516C56.75 83.6484 56.5156 84.0938 56.5156 84.0938V84.1174C56.1875 84.7034 55.8359 85.2656 55.6716 85.2656C55.5545 85.2656 55.3201 83.6953 55.7185 81.5393C56.5857 77.0156 58.6951 69.9612 58.6719 69.7034C58.6719 69.5862 59.0701 68.3438 57.3123 67.7112C55.6013 67.0784 54.9922 68.133 54.8513 68.133C54.7107 68.133 54.5935 68.508 54.5935 68.508C54.5935 68.508 56.492 60.563 50.9607 60.563C47.492 60.563 42.7107 64.3364 40.3435 67.7817C38.8435 68.602 35.656 70.3362 32.281 72.188C30.992 72.8911 29.656 73.6411 28.3904 74.3208L28.1328 74.0391C21.4297 66.8906 9.03126 61.8281 9.54688 52.2188C9.73438 48.7266 10.9531 39.5156 33.3596 28.3594C51.7112 19.2188 66.4065 21.7266 68.9609 27.3047C72.5938 35.2734 61.1094 50.0859 42.0315 52.2188C34.7659 53.0391 30.9453 50.2266 29.9846 49.1719C28.9768 48.0703 28.8362 48.0234 28.4612 48.2344C27.8518 48.5625 28.2268 49.5469 28.4612 50.1328C29.0237 51.6094 31.3674 54.2344 35.3518 55.5469C38.8438 56.6953 47.3752 57.3281 57.6877 53.3438C69.2424 48.8672 78.2659 36.4453 75.6174 26.0625C72.9221 15.4922 55.3909 12.0234 38.8206 17.9063C28.9531 21.4219 18.2656 26.9063 10.5781 34.1016C1.43751 42.6328 -0.0156156 50.0859 0.593759 53.1797C2.72681 64.2188 17.9375 71.4141 24.0313 76.7344C23.7266 76.8982 23.4453 77.0623 23.1875 77.2031C20.1406 78.7029 8.53907 84.7734 5.63282 91.1951C2.35157 98.4607 6.14845 103.688 8.6797 104.391C16.5078 106.57 24.5234 102.656 28.8594 96.2109C33.1716 89.7656 32.6563 81.3984 30.6641 77.5781L30.5935 77.4375L32.9841 76.0313C34.5313 75.1172 36.0547 74.2734 37.3904 73.5466C36.6406 75.5857 36.1013 77.9998 35.8203 81.5154C35.4922 85.6406 37.1797 90.9841 39.4063 93.0935C40.3906 94.0074 41.5625 94.031 42.2891 94.031C44.8672 94.031 46.0391 91.898 47.3281 89.3435C48.9219 86.2263 50.3281 82.617 50.3281 82.617C50.3281 82.617 48.5703 92.3904 53.375 92.3904C55.1328 92.3904 56.8906 90.117 57.6875 88.9451V88.9685C57.6875 88.9685 57.7344 88.8982 57.8281 88.7341C57.9265 88.5887 58.0203 88.4403 58.1094 88.2891V88.2422C58.8125 87.0234 60.3828 84.2344 62.7266 79.6172C65.7498 73.6641 68.6563 66.2109 68.6563 66.2109C68.6563 66.2109 68.9375 68.0391 69.8047 71.0391C70.3201 72.8206 71.4451 74.7656 72.3123 76.6641C71.6091 77.6484 71.1873 78.2112 71.1873 78.2112L71.2107 78.2346C70.6484 78.9846 70.0154 79.7817 69.3594 80.5784C66.9688 83.4377 64.1094 86.6958 63.7344 87.6333C63.2891 88.7346 63.3828 89.5549 64.25 90.2114C64.8828 90.6802 66.0078 90.7737 67.2031 90.6802C69.3594 90.5393 70.8594 90.0005 71.6094 89.6721C72.7813 89.2502 74.1172 88.6174 75.4063 87.6799C77.75 85.9458 79.1797 83.4848 79.0391 80.2036C78.9688 78.3989 78.3828 76.6177 77.6563 74.9302C77.8672 74.6255 78.0784 74.3205 78.2891 73.9927C81.9922 68.5784 84.8516 62.6255 84.8516 62.6255C84.8516 62.6255 85.1328 64.4536 86 67.4536C86.4451 68.977 87.3359 70.6413 88.1328 72.282C84.6641 75.1179 82.4844 78.3991 81.7344 80.5554C80.3516 84.5398 81.4297 86.3445 83.4688 86.7663C84.3826 86.9538 85.6953 86.532 86.6795 86.1101C87.8982 85.7116 89.3748 85.0317 90.7344 84.0241C93.0781 82.2898 95.3281 79.8757 95.2109 76.6179C95.1406 75.1179 94.7422 73.6413 94.2031 72.2351C97.1562 71.0163 100.976 70.3132 105.828 70.8991C116.258 72.1179 118.32 78.6335 117.922 81.3523C117.524 84.0713 115.344 85.571 114.617 86.0398C113.891 86.4851 113.656 86.6494 113.727 86.9773C113.82 87.4697 114.148 87.446 114.781 87.3525C115.648 87.2116 120.266 85.1259 120.453 80.1106C120.734 73.6643 114.617 66.6331 103.766 66.7031V66.7031ZM23.3281 93.8203C19.8828 97.5938 15.0313 99.0234 12.9688 97.8047C10.7422 96.5156 11.6091 90.9609 15.8516 86.9531C18.4297 84.5156 21.7813 82.2656 23.9844 80.8828C24.4766 80.5781 25.2266 80.1331 26.1172 79.5938C26.2578 79.5002 26.3516 79.4531 26.3516 79.4531C26.5156 79.3594 26.7031 79.2422 26.8906 79.125C28.4609 84.8438 26.9609 89.8594 23.3281 93.8203V93.8203ZM48.5234 76.6875C47.3281 79.6172 44.7969 87.1406 43.2734 86.7188C41.9607 86.3672 41.1641 80.6719 43.0154 75.0469C43.9529 72.2107 45.9451 68.8359 47.117 67.5232C49.0156 65.4138 51.0779 64.7107 51.5938 65.5779C52.2031 66.7031 49.2734 74.8594 48.5234 76.6875ZM69.3125 86.625C68.7969 86.8831 68.3281 87.0703 68.1172 86.9299C67.9531 86.8362 68.3279 86.4846 68.3279 86.4846C68.3279 86.4846 70.9295 83.6956 71.9607 82.4065C72.5466 81.6567 73.2498 80.7895 73.9998 79.8049V80.0862C74 83.4609 70.7656 85.7109 69.3125 86.625ZM85.3435 82.9688C84.9685 82.6875 85.0156 81.8203 86.281 79.1016C86.7734 78.0234 87.8982 76.2188 89.8435 74.5078C90.0779 75.2109 90.2188 75.8904 90.1951 76.5234C90.1719 80.7422 87.1719 82.3125 85.3435 82.9688Z"
        fill="#B60045" />
</svg>