<svg viewBox="0 0 121 120" fill="none" xmlns="http://www.w3.org/2000/svg">
    <g clip-path="url(#clip0_138_368)">
        <path
            d="M56.5746 0.0937859C56.3168 0.117221 55.4966 0.199244 54.7584 0.257832C37.7327 1.79284 21.785 10.9794 11.6845 25.0992C6.06001 32.95 2.46271 41.8553 1.10346 51.288C0.623041 54.5807 0.564453 55.5532 0.564453 60.0176C0.564453 64.482 0.623041 65.4546 1.10346 68.7472C4.36096 91.2568 20.3789 110.169 42.1034 117.176C45.9936 118.43 50.0948 119.285 54.7584 119.801C56.5746 120 64.4254 120 66.2416 119.801C74.2916 118.91 81.1113 116.918 87.8372 113.485C88.8683 112.958 89.0675 112.817 88.9269 112.7C88.8332 112.63 84.4391 106.736 79.1661 99.6114L69.5811 86.6635L57.5706 68.8879C50.9619 59.1154 45.5249 51.124 45.478 51.124C45.4312 51.1122 45.3843 59.0099 45.3609 68.6535C45.3257 85.5386 45.314 86.2182 45.1031 86.6166C44.7984 87.1908 44.5641 87.4251 44.0719 87.6829C43.697 87.8704 43.3689 87.9055 41.5995 87.9055H39.5724L39.0333 87.5657C38.6818 87.3431 38.424 87.0501 38.2483 86.7103L38.0022 86.183L38.0256 62.6892L38.0608 39.1837L38.424 38.7267C38.6115 38.4807 39.0099 38.1643 39.2911 38.012C39.7716 37.7776 39.959 37.7542 41.9862 37.7542C44.3766 37.7542 44.775 37.8479 45.396 38.5275C45.5718 38.715 52.075 48.5109 59.8555 60.3106C67.636 72.1102 78.2756 88.2219 83.5017 96.1313L92.9929 110.509L93.4733 110.192C97.7268 107.427 102.226 103.49 105.789 99.3888C113.37 90.6826 118.256 80.0664 119.897 68.7472C120.377 65.4546 120.436 64.482 120.436 60.0176C120.436 55.5532 120.377 54.5807 119.897 51.288C116.639 28.7785 100.621 9.86627 78.8966 2.85914C75.065 1.61707 70.9873 0.761689 66.4174 0.246115C65.2925 0.128939 57.5472 4.50773e-05 56.5746 0.0937859V0.0937859ZM81.1113 36.3481C81.6737 36.6293 82.1307 37.1683 82.2947 37.7307C82.3885 38.0354 82.4119 44.5504 82.3885 59.2325L82.3533 80.3008L78.6389 74.606L74.9127 68.9113V53.5964C74.9127 43.695 74.9595 38.1291 75.0298 37.8596C75.2173 37.2034 75.6274 36.6879 76.1899 36.3832C76.6703 36.1371 76.8461 36.1137 78.6857 36.1137C80.4199 36.1137 80.7246 36.1371 81.1113 36.3481V36.3481Z"
            fill="#B60045" />
        <path
            d="M92.4071 110.767C91.997 111.024 91.8681 111.2 92.2314 111.001C92.4892 110.849 92.911 110.532 92.8407 110.521C92.8055 110.521 92.6063 110.638 92.4071 110.767ZM91.5986 111.294C91.3877 111.458 91.3877 111.47 91.6455 111.341C91.7861 111.27 91.9033 111.188 91.9033 111.165C91.9033 111.071 91.8447 111.095 91.5986 111.294ZM91.0128 111.645C90.8018 111.809 90.8018 111.821 91.0596 111.692C91.2002 111.622 91.3174 111.54 91.3174 111.517C91.3174 111.423 91.2588 111.446 91.0128 111.645ZM90.4269 111.997C90.216 112.161 90.216 112.173 90.4737 112.044C90.6144 111.973 90.7315 111.891 90.7315 111.868C90.7315 111.774 90.6729 111.798 90.4269 111.997ZM89.5363 112.466C89.0911 112.7 89.1145 112.794 89.5598 112.571C89.759 112.466 89.9113 112.36 89.9113 112.337C89.9113 112.255 89.8996 112.266 89.5363 112.466Z"
            fill="#5D0124" />
    </g>
    <defs>
        <clipPath id="clip0_138_368">
            <rect width="120" height="120" fill="white" transform="translate(0.5)" />
        </clipPath>
    </defs>
</svg>