<svg viewBox="0 0 121 120" fill="none" xmlns="http://www.w3.org/2000/svg">
    <path
        d="M40.5081 120C51.5481 120 60.5081 111.04 60.5081 100V80H40.5081C29.4681 80 20.5081 88.96 20.5081 100C20.5081 111.04 29.4681 120 40.5081 120Z"
        fill="#B60045" />
    <path
        d="M20.5081 60C20.5081 48.96 29.4681 40 40.5081 40H60.5081V80H40.5081C29.4681 80 20.5081 71.04 20.5081 60Z"
        fill="#B60045" />
    <path
        d="M20.5081 20C20.5081 8.96 29.4681 0 40.5081 0H60.5081V40H40.5081C29.4681 40 20.5081 31.04 20.5081 20Z"
        fill="#B60045" />
    <path
        d="M60.5081 0H80.5081C91.5481 0 100.508 8.96 100.508 20C100.508 31.04 91.5481 40 80.5081 40H60.5081V0Z"
        fill="#B60045" />
    <path
        d="M100.508 60C100.508 71.04 91.5481 80 80.5081 80C69.4681 80 60.5081 71.04 60.5081 60C60.5081 48.96 69.4681 40 80.5081 40C91.5481 40 100.508 48.96 100.508 60Z"
        fill="#B60045" />
</svg>