<svg viewBox="0 0 121 120" fill="none" xmlns="http://www.w3.org/2000/svg">
    <g clip-path="url(.clip0_138_318)">
        <path d="M0.5 60V0H120.5V120H0.5" fill="#B60045" />
        <path
            d="M26.8101 60.21V65.1H42.4101V109.5H53.4801V65.1H69.0801V60.3C69.0801 57.6 69.0801 55.41 68.9601 55.35C68.9601 55.26 59.4501 55.23 47.9001 55.23L26.9001 55.32V60.24L26.8101 60.21V60.21ZM96.9201 55.2C99.9801 55.92 102.32 57.3 104.42 59.49C105.53 60.69 107.18 62.79 107.3 63.33C107.3 63.51 102.11 67.02 98.9601 68.97C98.8401 69.06 98.3601 68.55 97.8801 67.77C96.3201 65.55 94.7301 64.59 92.2401 64.41C88.6401 64.17 86.2401 66.06 86.2401 69.21C86.2401 70.17 86.4201 70.71 86.7801 71.49C87.5901 73.14 89.0901 74.13 93.7401 76.17C102.32 79.86 106.04 82.29 108.29 85.77C110.84 89.67 111.41 95.79 109.7 100.38C107.78 105.39 103.1 108.78 96.4101 109.89C94.3101 110.25 89.5101 110.19 87.2601 109.8C82.4601 108.9 77.8701 106.5 75.0501 103.41C73.9401 102.21 71.8101 99 71.9301 98.79L73.0701 98.07L77.5701 95.46L80.9601 93.48L81.7401 94.53C82.7301 96.09 84.9501 98.19 86.2401 98.91C90.1401 100.92 95.3601 100.65 97.9401 98.31C99.0501 97.29 99.5301 96.21 99.5301 94.71C99.5301 93.33 99.3201 92.7 98.6301 91.65C97.6701 90.33 95.7501 89.25 90.3501 86.85C84.1401 84.21 81.5001 82.53 79.0401 79.95C77.6301 78.39 76.3401 75.96 75.7401 73.95C75.2901 72.21 75.1401 67.95 75.5601 66.24C76.8501 60.24 81.3801 56.04 87.8601 54.84C89.9601 54.42 94.9101 54.6 96.9801 55.14L96.9201 55.2V55.2Z"
            fill="#FF0060" />
    </g>
    <defs>
        <clipPath class="clip0_138_318">
            <rect fill="white" transform="translate(0.5)" />
        </clipPath>
    </defs>
</svg>