<svg xmlns="http://www.w3.org/2000/svg" viewBox="0 0 65 65" fill="currentColor">
    <path d="M0.5 32.5C0.5 23.6666 3.625 16.125 9.87505 9.87499C16.125 3.625 23.6666 0.5 32.5 0.5C41.3333 0.5 48.8749 3.625 55.125 9.87499C61.3749 16.125 64.5 23.6666 64.5 32.5C64.5 41.3333 61.375 48.875 55.125 55.1249C48.875 61.3749 41.3334 64.5 32.5 64.5C23.6666 64.5 16.125 61.375 9.87505 55.1249C3.625 48.875 0.5 41.3332 0.5 32.5ZM4 32.5C4 40.3334 6.79166 47.0416 12.375 52.625C17.9583 58.2083 24.6666 61 32.5 61C40.3334 61 47.0417 58.2083 52.625 52.625C58.2083 47.0417 61 40.3334 61 32.5C61 24.6666 58.2084 17.9583 52.625 12.375C47.0417 6.79166 40.3333 4 32.5 4C24.6666 4 17.9584 6.79166 12.375 12.375C6.79166 17.9583 4 24.6666 4 32.5ZM13.0001 39.375C12.8334 39.2083 12.8334 39.0416 13.0001 38.875C13.3333 38.5416 13.7501 38.4166 14.25 38.5C14.75 38.5833 15.0417 38.6666 15.125 38.75C15.7083 39 16.3542 39.5624 17.0625 40.4375C17.7707 41.3125 18.3333 41.9166 18.75 42.25C20.75 43.9166 22.7916 44.0416 24.8749 42.625C25.0416 42.0416 25.3124 41.5416 25.6874 41.1249C26.0623 40.7082 26.4166 40.4166 26.7499 40.2499C27.0833 40.0832 27.6666 39.8332 28.5 39.4999C25.7499 39.2499 23.5208 38.7707 21.8124 38.0624C20.1041 37.354 18.7499 36.4582 17.7499 35.3749C16.4166 33.8749 15.6041 31.9166 15.3124 29.4999C15.0207 27.0832 15.2082 24.8749 15.8749 22.8749C16.3749 21.6249 17.0833 20.5 17.9999 19.4999C17.3332 17.4166 17.4582 15.0416 18.3749 12.3749C21.0415 12.5416 23.4582 13.4583 25.6248 15.1249C29.7915 14.0416 34.1248 13.9999 38.6248 14.9999C39.2081 14.5833 40.104 14.0625 41.3122 13.4374C42.5206 12.8124 44.0414 12.4582 45.8748 12.3749C46.2081 13.2915 46.4373 14.3749 46.5623 15.6249C46.6873 16.8749 46.6248 18.0415 46.3748 19.1249C48.2914 21.1249 49.2914 23.7915 49.3748 27.1248C49.3748 29.7915 48.9165 31.9998 47.9998 33.7498C47.0832 35.4998 45.4582 36.9582 43.1248 38.1248C41.5415 38.8748 39.4582 39.3331 36.8748 39.4998C38.0416 40.0831 38.8957 40.6873 39.4374 41.3123C39.9791 41.9373 40.3332 42.9164 40.5 44.2498V48.1874L40.6249 51.9998C40.8749 52.4166 41.1666 52.7707 41.5 53.0624C41.8333 53.3541 42.125 53.5624 42.375 53.6874C42.6249 53.8124 42.7083 53.9999 42.6249 54.2499C42.5416 54.4999 42.2082 54.6249 41.625 54.6249C40.2082 54.6249 39.0833 54.1249 38.25 53.1249C38 52.7082 37.875 52.2083 37.875 51.6249V45.6249C37.875 44.9582 37.7083 44.479 37.375 44.1874C37.0416 43.8956 36.7083 43.7082 36.375 43.6248V51.4998C36.375 52.9165 36.5416 53.8332 36.875 54.2498C37.2083 54.6665 37.4166 55.0832 37.5 55.4998C37.5834 55.5832 37.5208 55.6456 37.3125 55.6873C37.1042 55.7289 36.75 55.6665 36.25 55.4998C35.1666 55.2498 34.4166 54.6873 34 53.8123C33.5833 52.9373 33.375 51.9998 33.375 50.9998V43.25H31.75V51C31.75 51.9999 31.5416 52.9583 31.1249 53.875C30.5416 55.0417 29.4582 55.6666 27.875 55.7499C27.625 55.6666 27.5 55.5833 27.5 55.5C27.5833 55.4166 27.8333 55 28.25 54.25C28.3333 54.0833 28.4375 53.75 28.5625 53.25C28.6876 52.75 28.75 52.1667 28.75 51.5V43.625C28.4167 43.7083 28.1042 43.8958 27.8125 44.1875C27.5208 44.4792 27.375 44.9584 27.375 45.625V51.625C27.375 52.2083 27.25 52.7083 27 53.125C26.25 54.125 25.125 54.6251 23.625 54.6251C23.0417 54.6251 22.7084 54.5001 22.625 54.2501C22.5416 54.0834 22.5625 53.9375 22.6876 53.8125C22.8126 53.6875 23.0001 53.5417 23.2501 53.375C23.5001 53.2083 23.6668 53.0833 23.7501 53C24.0834 52.75 24.3334 52.4167 24.5001 52C24.7501 51.6667 24.8126 50.7917 24.6876 49.375C24.5626 47.9584 24.5417 47.0417 24.625 46.625C22.4583 47.375 20.25 47 18 45.5C17.3333 44.8334 16.6667 43.875 16 42.625C15.5 41.7083 14.5 40.625 13.0001 39.375Z" />
</svg>