<svg xmlns="http://www.w3.org/2000/svg" viewBox="0 0 65 65" fill="currentColor">
    <path d="M32.4999 0.5C14.8267 0.5 0.5 14.8267 0.5 32.4999C0.5 50.1731 14.8267 64.4999 32.4999 64.4999C50.1731 64.4999 64.5 50.1731 64.5 32.4999C64.4999 14.8267 50.1729 0.5 32.4999 0.5ZM23.9623 47.9704H16.9364V25.2717H23.9623V47.9704ZM20.4159 22.2992C18.1213 22.2992 16.2611 20.4238 16.2611 18.1109C16.2611 15.7976 18.1215 13.9224 20.4159 13.9224C22.7102 13.9224 24.5704 15.7976 24.5704 18.1109C24.5705 20.424 22.7103 22.2992 20.4159 22.2992V22.2992ZM50.2919 47.9704H43.3V36.0555C43.3 32.7876 42.0587 30.9634 39.4747 30.9634C36.6624 30.9634 35.1932 32.8633 35.1932 36.0555V47.9704H28.4546V25.2717H35.1932V28.3289C35.1932 28.3289 37.2202 24.5793 42.0333 24.5793C46.8465 24.5793 50.292 27.5182 50.292 33.5979L50.2919 47.9704V47.9704Z" />
</svg>