<svg viewBox="0 0 48 48" fill="none" xmlns="http://www.w3.org/2000/svg">
    <path fill-rule="evenodd" clip-rule="evenodd"
        d="M24 48C37.2548 48 48 37.2548 48 24C48 10.7452 37.2548 0 24 0C10.7452 0 0 10.7452 0 24C0 37.2548 10.7452 48 24 48ZM18.5098 34.3586L24.6646 34.4725C24.6744 34.4725 24.6941 34.4725 24.6939 34.4878C28.1214 34.5526 31.4607 34.3492 34.8786 34.0964C37.6064 33.9031 38.2528 31.9008 38.5906 29.5131C39.0117 26.6293 39.1048 23.7109 38.8844 20.8073C38.8739 20.6696 38.8636 20.5307 38.8533 20.391C38.6479 17.6128 38.4172 14.4905 35.1724 13.915C34.482 13.791 33.777 13.6821 33.0768 13.6622C26.447 13.4449 19.7584 13.3897 13.1139 13.8555C11.1456 13.9839 9.87282 15.1634 9.54941 17.1402C8.97652 20.6631 8.85899 24.2803 9.16257 27.8329C9.16636 27.8763 9.17014 27.9199 9.17394 27.9636C9.39094 30.4627 9.64452 33.383 12.5655 33.9869C14.1381 34.3179 15.7392 34.3311 17.3433 34.3444C17.732 34.3476 18.121 34.3508 18.5098 34.3586ZM24.2406 26.5703C25.7294 25.7043 27.2134 24.8412 28.7091 23.9731C27.319 23.1668 25.9459 22.3679 24.5745 21.5699C23.4003 20.8867 22.2274 20.2042 21.0462 19.5186V28.4275C22.1175 27.8051 23.1803 27.187 24.2406 26.5703Z"
        fill="currentColor" />
</svg>