<svg viewBox="0 0 121 120" fill="none" xmlns="http://www.w3.org/2000/svg">
    <g clip-path="url(.clip0_138_309)">
        <path
            d="M120.5 59.6023C120.5 51.6462 110.545 44.1063 95.2819 39.4305C98.8041 23.861 97.2387 11.474 90.341 7.50817C88.7511 6.57792 86.8922 6.13727 84.862 6.13727V11.5964C85.9872 11.5964 86.8922 11.8167 87.6504 12.2329C90.977 14.1423 92.4201 21.413 91.295 30.7645C91.0259 33.0656 90.5856 35.4892 90.0475 37.9617C85.2534 36.7866 80.019 35.8809 74.5155 35.2933C71.2134 30.7645 67.789 26.6518 64.3402 23.0532C72.3141 15.6356 79.7988 11.5719 84.8865 11.5719V6.11279C78.16 6.11279 69.3545 10.9109 60.4511 19.2342C51.5477 10.9599 42.7422 6.21071 36.0157 6.21071V11.6698C41.0789 11.6698 48.5881 15.7091 56.562 23.0777C53.1376 26.6763 49.7132 30.7645 46.4601 35.2933C40.9321 35.8809 35.6977 36.7866 30.9036 37.9862C30.341 35.5381 29.9252 33.1636 29.6317 30.8869C28.4821 21.5354 29.9007 14.2647 33.2028 12.3308C33.9366 11.8902 34.8905 11.6943 36.0157 11.6943V6.23519C33.9611 6.23519 32.1021 6.67584 30.4878 7.60609C23.6146 11.5719 22.0736 23.9345 25.6203 39.455C10.4062 44.1552 0.5 51.6707 0.5 59.6023C0.5 67.5584 10.4552 75.0984 25.7181 79.7741C22.1959 95.3436 23.7613 107.731 30.659 111.696C32.2489 112.627 34.1078 113.067 36.1625 113.067C42.8889 113.067 51.6945 108.269 60.5978 99.9459C69.5012 108.22 78.3068 112.969 85.0332 112.969C87.0878 112.969 88.9468 112.529 90.5612 111.599C97.4344 107.633 98.9753 95.2701 95.4287 79.7496C110.594 75.0739 120.5 67.5339 120.5 59.6023V59.6023ZM88.6533 43.2739C87.7483 46.4319 86.6231 49.6878 85.3512 52.9437C84.3483 50.9852 83.2966 49.0268 82.147 47.0684C81.0218 45.11 79.8233 43.2005 78.6248 41.34C82.0981 41.8541 85.449 42.4906 88.6533 43.2739ZM77.4507 69.3455C75.5428 72.6503 73.586 75.7838 71.5559 78.697C67.9113 79.0152 64.2179 79.1866 60.5 79.1866C56.8066 79.1866 53.1131 79.0152 49.4931 78.7214C47.4629 75.8083 45.4817 72.6993 43.5738 69.4189C41.7148 66.212 40.0271 62.9561 38.4861 59.6757C40.0027 56.3954 41.7148 53.115 43.5493 49.9081C45.4572 46.6033 47.414 43.4698 49.4442 40.5566C53.0887 40.2384 56.7821 40.067 60.5 40.067C64.1934 40.067 67.8869 40.2384 71.5069 40.5321C73.5371 43.4453 75.5183 46.5543 77.4262 49.8347C79.2852 53.0416 80.9729 56.2975 82.5139 59.5778C80.9729 62.8582 79.2852 66.1386 77.4507 69.3455ZM85.3512 66.163C86.672 69.4434 87.7972 72.7238 88.7267 75.9062C85.5224 76.6896 82.147 77.3505 78.6492 77.8646C79.8477 75.9796 81.0463 74.0457 82.1714 72.0628C83.2966 70.1044 84.3483 68.1215 85.3512 66.163ZM60.5489 92.2835C58.2742 89.9334 55.9994 87.314 53.7491 84.4498C55.9505 84.5478 58.2008 84.6212 60.4755 84.6212C62.7748 84.6212 65.0495 84.5722 67.2754 84.4498C65.074 87.314 62.7992 89.9334 60.5489 92.2835ZM42.3508 77.8646C38.8775 77.3505 35.5265 76.7141 32.3223 75.9307C33.2273 72.7727 34.3524 69.5168 35.6243 66.261C36.6272 68.2194 37.679 70.1778 38.8286 72.1362C39.9782 74.0947 41.1523 76.0041 42.3508 77.8646ZM60.4266 26.9211C62.7014 29.2712 64.9762 31.8906 67.2265 34.7548C65.0251 34.6569 62.7748 34.5834 60.5 34.5834C58.2008 34.5834 55.926 34.6324 53.7002 34.7548C55.9016 31.8906 58.1763 29.2712 60.4266 26.9211ZM42.3263 41.34C41.1278 43.225 39.9293 45.1589 38.8041 47.1418C37.679 49.1002 36.6272 51.0587 35.6243 53.0171C34.3035 49.7367 33.1784 46.4564 32.2489 43.2739C35.4531 42.515 38.8286 41.8541 42.3263 41.34V41.34ZM20.1902 71.9894C11.5314 68.2928 5.93009 63.4457 5.93009 59.6023C5.93009 55.7589 11.5314 50.8873 20.1902 47.2153C22.2937 46.3095 24.5929 45.5016 26.9656 44.7427C28.3598 49.5409 30.1943 54.5349 32.469 59.6513C30.2187 64.7432 28.4087 69.7127 27.0389 74.4863C24.6174 73.7275 22.3182 72.8951 20.1902 71.9894ZM33.3496 106.972C30.023 105.062 28.5799 97.7916 29.7051 88.4401C29.9741 86.139 30.4144 83.7154 30.9525 81.2429C35.7466 82.418 40.981 83.3237 46.4845 83.9113C49.7866 88.4401 53.211 92.5528 56.6598 96.1514C48.6859 103.569 41.2012 107.633 36.1135 107.633C35.0128 107.608 34.0834 107.388 33.3496 106.972V106.972ZM91.3683 88.3177C92.5179 97.6692 91.0993 104.94 87.7972 106.874C87.0634 107.314 86.1095 107.51 84.9843 107.51C79.9211 107.51 72.412 103.471 64.438 96.1025C67.8624 92.5039 71.2868 88.4157 74.54 83.8868C80.0679 83.2993 85.3023 82.3935 90.0964 81.194C90.659 83.6665 91.0993 86.0411 91.3683 88.3177V88.3177ZM100.785 71.9894C98.6818 72.8951 96.3826 73.703 94.01 74.4619C92.6158 69.6637 90.7813 64.6697 88.5065 59.5533C90.7568 54.4614 92.5669 49.4919 93.9366 44.7183C96.3581 45.4772 98.6574 46.3095 100.81 47.2153C109.469 50.9118 115.07 55.7589 115.07 59.6023C115.045 63.4457 109.444 68.3173 100.785 71.9894V71.9894Z"
            fill="#5D0124" />
        <path
            d="M60.4755 70.7898C66.649 70.7898 71.6537 65.781 71.6537 59.6023C71.6537 53.4236 66.649 48.4148 60.4755 48.4148C54.302 48.4148 49.2974 53.4236 49.2974 59.6023C49.2974 65.781 54.302 70.7898 60.4755 70.7898Z"
            fill="#5D0124" />
    </g>
    <defs>
        <clipPath class="clip0_138_309">
            <rect fill="white" transform="translate(0.5)" />
        </clipPath>
    </defs>
</svg>