<svg viewBox="0 0 121 120" fill="none" xmlns="http://www.w3.org/2000/svg">
    <g clip-path="url(.clip0_138_385)">
        <path
            d="M121 60.4895C121 52.5334 111.045 44.9935 95.7819 40.3177C99.3041 24.7482 97.7387 12.3612 90.841 8.39538C89.2511 7.46513 87.3922 7.02448 85.362 7.02448V12.4836C86.4872 12.4836 87.3922 12.7039 88.1504 13.1201C91.477 15.0295 92.9201 22.3002 91.795 31.6517C91.5259 33.9528 91.0856 36.3764 90.5475 38.8489C85.7534 37.6739 80.519 36.7681 75.0155 36.1805C71.7134 31.6517 68.289 27.539 64.8402 23.9404C72.8141 16.5228 80.2988 12.4591 85.3865 12.4591V7C78.66 7 69.8545 11.7981 60.9511 20.1215C52.0477 11.8471 43.2422 7.09792 36.5157 7.09792V12.557C41.5789 12.557 49.0881 16.5963 57.062 23.9649C53.6376 27.5635 50.2132 31.6517 46.9601 36.1805C41.4321 36.7681 36.1977 37.6738 31.4036 38.8734C30.841 36.4254 30.4252 34.0508 30.1317 31.7741C28.9821 22.4226 30.4007 15.1519 33.7028 13.218C34.4366 12.7774 35.3905 12.5815 36.5157 12.5815V7.1224C34.4611 7.1224 32.6021 7.56305 30.9878 8.4933C24.1146 12.4591 22.5736 24.8217 26.1203 40.3422C10.9062 45.0424 1 52.5579 1 60.4895C1 68.4456 10.9552 75.9856 26.2181 80.6613C22.6959 96.2308 24.2613 108.618 31.159 112.584C32.7489 113.514 34.6078 113.955 36.6625 113.955C43.3889 113.955 52.1945 109.156 61.0978 100.833C70.0012 109.107 78.8068 113.857 85.5332 113.857C87.5878 113.857 89.4468 113.416 91.0612 112.486C97.9344 108.52 99.4753 96.1573 95.9287 80.6368C111.094 75.9611 121 68.4211 121 60.4895V60.4895ZM89.1533 44.1611C88.2483 47.3191 87.1231 50.575 85.8512 53.8309C84.8483 51.8724 83.7966 49.914 82.647 47.9556C81.5218 45.9972 80.3233 44.0877 79.1248 42.2272C82.5981 42.7413 85.949 43.3778 89.1533 44.1611ZM77.9507 70.2327C76.0428 73.5375 74.086 76.671 72.0559 79.5842C68.4113 79.9024 64.7179 80.0738 61 80.0738C57.3066 80.0738 53.6131 79.9024 49.9931 79.6086C47.9629 76.6955 45.9817 73.5865 44.0738 70.3061C42.2148 67.0992 40.5271 63.8433 38.9861 60.563C40.5027 57.2826 42.2148 54.0022 44.0493 50.7953C45.9572 47.4905 47.914 44.357 49.9442 41.4438C53.5887 41.1256 57.2821 40.9542 61 40.9542C64.6934 40.9542 68.3869 41.1256 72.0069 41.4193C74.0371 44.3325 76.0183 47.4415 77.9262 50.7219C79.7852 53.9288 81.4729 57.1847 83.0139 60.465C81.4729 63.7454 79.7852 67.0258 77.9507 70.2327ZM85.8512 67.0502C87.172 70.3306 88.2972 73.611 89.2267 76.7934C86.0224 77.5768 82.647 78.2378 79.1492 78.7518C80.3477 76.8669 81.5463 74.9329 82.6714 72.95C83.7966 70.9916 84.8483 69.0087 85.8512 67.0502ZM61.0489 93.1707C58.7742 90.8206 56.4994 88.2012 54.2491 85.337C56.4505 85.435 58.7008 85.5084 60.9755 85.5084C63.2748 85.5084 65.5495 85.4594 67.7754 85.337C65.574 88.2012 63.2992 90.8206 61.0489 93.1707ZM42.8508 78.7518C39.3775 78.2378 36.0265 77.6013 32.8223 76.8179C33.7273 73.6599 34.8524 70.404 36.1243 67.1482C37.1272 69.1066 38.179 71.065 39.3286 73.0234C40.4782 74.9819 41.6523 76.8913 42.8508 78.7518ZM60.9266 27.8083C63.2014 30.1584 65.4762 32.7778 67.7265 35.642C65.5251 35.5441 63.2748 35.4706 61 35.4706C58.7008 35.4706 56.426 35.5196 54.2002 35.642C56.4016 32.7778 58.6763 30.1584 60.9266 27.8083ZM42.8263 42.2272C41.6278 44.1122 40.4293 46.0461 39.3041 48.029C38.179 49.9875 37.1272 51.9459 36.1243 53.9043C34.8035 50.6239 33.6784 47.3436 32.7489 44.1611C35.9531 43.4022 39.3286 42.7413 42.8263 42.2272V42.2272ZM20.6902 72.8766C12.0314 69.18 6.43009 64.3329 6.43009 60.4895C6.43009 56.6461 12.0314 51.7745 20.6902 48.1025C22.7937 47.1967 25.0929 46.3888 27.4656 45.63C28.8598 50.4281 30.6943 55.4221 32.969 60.5385C30.7187 65.6304 28.9087 70.5999 27.5389 75.3735C25.1174 74.6147 22.8182 73.7823 20.6902 72.8766ZM33.8496 107.859C30.523 105.949 29.0799 98.6788 30.2051 89.3273C30.4741 87.0262 30.9144 84.6026 31.4525 82.1301C36.2466 83.3052 41.481 84.2109 46.9845 84.7985C50.2866 89.3273 53.711 93.44 57.1598 97.0386C49.1859 104.456 41.7012 108.52 36.6135 108.52C35.5128 108.495 34.5834 108.275 33.8496 107.859V107.859ZM91.8683 89.2049C93.0179 98.5564 91.5993 105.827 88.2972 107.761C87.5634 108.202 86.6095 108.398 85.4843 108.398C80.4211 108.398 72.912 104.358 64.938 96.9897C68.3624 93.3911 71.7868 89.3029 75.04 84.774C80.5679 84.1865 85.8023 83.2807 90.5964 82.0812C91.159 84.5537 91.5993 86.9283 91.8683 89.2049V89.2049ZM101.285 72.8766C99.1818 73.7823 96.8826 74.5902 94.51 75.3491C93.1158 70.5509 91.2813 65.5569 89.0065 60.4405C91.2568 55.3486 93.0669 50.3791 94.4366 45.6055C96.8581 46.3644 99.1574 47.1967 101.31 48.1025C109.969 51.799 115.57 56.6461 115.57 60.4895C115.545 64.3329 109.944 69.2045 101.285 72.8766V72.8766Z"
            fill="#B60045" />
        <path
            d="M60.4755 70.7898C66.649 70.7898 71.6537 65.781 71.6537 59.6023C71.6537 53.4236 66.649 48.4148 60.4755 48.4148C54.302 48.4148 49.2974 53.4236 49.2974 59.6023C49.2974 65.781 54.302 70.7898 60.4755 70.7898Z"
            fill="#B60045" />
    </g>
    <defs>
        <clipPath class="clip0_138_385">
            <rect width="120" height="120" fill="white" transform="translate(0.5)" />
        </clipPath>
    </defs>
</svg>