<svg viewBox="0 0 121 120" fill="none" xmlns="http://www.w3.org/2000/svg">
    <g clip-path="url(.clip0_138_378)">
        <path
            d="M0.5 64.0331L0.5 12.01L45.5 38.0216L45.5 55.3626L15.5 38.0216L15.5 72.7036L0.5 64.0331Z"
            fill="#B60045" />
        <path
            d="M45.5 38.0216L90.5 12.01L90.5 64.0331L60.5 81.3741L45.5 72.7036L75.5 55.3626L75.5 38.0216L45.5 55.3626L45.5 38.0216Z"
            fill="#B60045" />
        <path d="M45.5 72.7036L45.5 90.0446L75.5 107.386L75.5 90.0446L45.5 72.7036Z" fill="#B60045" />
        <path
            d="M75.5 107.386L120.5 81.3741L120.5 46.6921L105.5 55.3626L105.5 72.7036L75.5 90.0446V107.386ZM105.5 38.0216V20.6805L120.5 12.01V29.351L105.5 38.0216Z"
            fill="#B60045" />
    </g>
    <defs>
        <clipPath class="clip0_138_378">
            <rect width="120" height="120" fill="white" transform="translate(0.5)" />
        </clipPath>
    </defs>
</svg>