<svg viewBox="0 0 121 120" fill="none" xmlns="http://www.w3.org/2000/svg">
    <g clip-path="url(.clip0_138_314)">
        <path d="M0.5 0H120.5V120H0.5V0Z" fill="#5D0124" />
        <path
            d="M110.679 91.3802C109.8 85.9049 106.23 81.308 95.656 77.019C91.983 75.3308 87.8879 74.1218 86.6674 71.3384C86.234 69.7186 86.1769 68.8061 86.4507 67.8251C87.2378 64.6426 91.0362 63.6502 94.0476 64.5627C95.9868 65.2129 97.8233 66.7073 98.9298 69.0913C104.108 65.7378 104.097 65.7605 107.713 63.4564C106.39 61.4032 105.683 60.4563 104.816 59.5781C101.702 56.099 97.4583 54.3081 90.6712 54.445C89.4963 54.5933 88.3101 54.7529 87.1351 54.9013C83.7474 55.7568 80.5191 57.5362 78.6256 59.9203C72.945 66.3651 74.5648 77.6464 81.4773 82.2891C88.2872 87.3994 98.291 88.5629 99.5686 93.3423C100.812 99.194 95.2683 101.087 89.7587 100.415C85.6978 99.5705 83.4394 97.5058 80.9982 93.753C76.504 96.3537 76.504 96.3537 71.8843 99.0115C72.9793 101.407 74.1313 102.491 75.9679 104.567C84.6599 113.384 106.413 112.951 110.314 99.6047C110.473 99.1483 111.523 96.0913 110.679 91.3802V91.3802ZM65.7359 55.1521H54.5115C54.5115 64.8479 54.466 74.4753 54.466 84.1711C54.466 90.3422 54.7854 96 53.7816 97.7338C52.139 101.144 47.8843 100.722 45.9451 100.061C43.9717 99.0911 42.9679 97.7109 41.8044 95.7605C41.485 95.2015 41.2455 94.7681 41.1655 94.7338C38.12 96.5932 35.0857 98.4638 32.04 100.323C33.5573 103.437 35.7929 106.141 38.656 107.897C42.9336 110.464 48.6826 111.251 54.6941 109.871C58.6067 108.73 61.983 106.369 63.7511 102.776C66.3062 98.0646 65.7587 92.3612 65.7359 86.0532C65.7929 75.7643 65.7359 65.4753 65.7359 55.1521Z"
            fill="#70012B" />
    </g>
    <defs>
        <clipPath class="clip0_138_314">
            <rect fill="white" transform="translate(0.5)" />
        </clipPath>
    </defs>
</svg>