<svg viewBox="0 0 121 120" fill="none" xmlns="http://www.w3.org/2000/svg">
    <g clip-path="url(#clip0_138_308)">
        <path
            d="M60.4999 24C44.5058 24 34.51 31.9932 30.5111 47.9781C36.5094 39.9849 43.5068 36.9886 51.5031 38.9861C56.066 40.1258 59.327 43.4356 62.9374 47.0978C68.8173 53.0634 75.6226 59.9678 90.4888 59.9678C106.481 59.9678 116.479 51.9747 120.476 35.9883C114.479 43.9815 107.482 46.9793 99.4841 44.9817C94.9227 43.842 91.6618 40.5322 88.0514 36.8701C82.1715 30.9044 75.3646 24 60.4999 24V24ZM30.5111 59.9678C14.5184 59.9678 4.5211 67.961 0.523682 83.9474C6.52056 75.9542 13.5179 72.9564 21.5157 74.9554C26.0772 76.0967 29.3381 79.4049 32.9485 83.0656C38.8284 89.0312 45.6352 95.9372 60.4999 95.9372C76.4941 95.9372 86.4899 87.944 90.4888 71.9576C84.4904 79.9508 77.4931 82.9486 69.4967 80.9496C64.9338 79.8113 61.6729 76.5001 58.0625 72.8394C52.1826 66.8738 45.3772 59.9678 30.5111 59.9678V59.9678Z"
            fill="#5D0124" />
    </g>
    <defs>
        <clipPath id="clip0_138_308">
            <rect width="120" height="120" fill="white" transform="translate(0.5)" />
        </clipPath>
    </defs>
</svg>