<svg viewBox="0 0 121 120" fill="none" xmlns="http://www.w3.org/2000/svg">
    <path
        d="M113.682 35.5233C113.681 33.5254 113.254 31.76 112.39 30.2453C111.541 28.7549 110.27 27.5061 108.565 26.5188C94.4909 18.4036 80.4032 10.3132 66.3336 2.18978C62.5406 -2.29687e-05 58.8629 0.0802232 55.098 2.30146C49.496 5.60479 21.4492 21.6734 13.0917 26.5142C9.64978 28.5072 7.97495 31.5565 7.97413 35.5196C7.96875 51.8397 7.97413 68.1598 7.96875 84.48C7.96875 86.434 8.37867 88.1655 9.2047 89.6575C10.0539 91.1925 11.3428 92.4756 13.0871 93.4853C21.4451 98.3261 49.4956 114.393 55.0963 117.698C58.8629 119.921 62.5406 120 66.3349 117.81C80.4048 109.686 94.4934 101.596 108.569 93.4803C110.314 92.4711 111.603 91.1871 112.452 89.6533C113.277 88.1609 113.687 86.4299 113.687 84.4754C113.687 84.4754 113.687 51.8438 113.682 35.5233Z"
        fill="#B60045" />
    <path
        d="M60.9897 59.8408L9.20459 89.6576C10.0538 91.1926 11.3427 92.4757 13.087 93.4854C21.445 98.3262 49.4955 114.394 55.0962 117.698C58.8628 119.921 62.5404 120 66.3348 117.81C80.4047 109.686 94.4932 101.596 108.569 93.4804C110.314 92.4712 111.603 91.1872 112.452 89.6534L60.9897 59.8408Z"
        fill="#B60045" />
    <path
        d="M113.682 35.5233C113.681 33.5254 113.254 31.76 112.39 30.2452L60.9897 59.8411L112.452 89.6533C113.277 88.1609 113.687 86.4298 113.687 84.4754C113.687 84.4754 113.687 51.8438 113.682 35.5233"
        fill="#B60045" />
    <path
        d="M91.479 48.6943V54.2677H97.0524V48.6943H99.8391V54.2677H105.412V57.0544H99.8391V62.6274H105.412V65.414H99.8391V70.9874H97.0524V65.414H91.479V70.9874H88.6923V65.414H83.1194V62.6274H88.6923V57.0544H83.1194V54.2677H88.6923V48.6943H91.479ZM97.0524 57.054H91.479V62.6274H97.0524V57.054Z"
        fill="#FF0060" />
    <path
        d="M61.1035 20.7043C75.6404 20.7043 88.3321 28.599 95.1303 40.3339L95.0641 40.221L77.9601 50.0689C74.5906 44.3636 68.4133 40.513 61.3265 40.4336L61.1031 40.4324C50.2968 40.4324 41.5359 49.1932 41.5359 59.9996C41.5323 63.4056 42.4222 66.753 44.1166 69.7077C47.4894 75.5958 53.8301 79.5672 61.1035 79.5672C68.422 79.5672 74.7987 75.5454 78.1541 69.5943L78.0726 69.737L95.1505 79.6305C88.4268 91.2661 75.9089 99.1364 61.5411 99.2932L61.1035 99.2957C46.5207 99.2957 33.793 91.3522 27.0118 79.5552C23.7014 73.7961 21.8074 67.1195 21.8074 59.9996C21.8074 38.2976 39.4003 20.7039 61.1031 20.7039L61.1035 20.7043Z"
        fill="#FF0060" />
</svg>